<svg id="Layer_5" enable-background="new 0 0 64 64" height="512" viewBox="0 0 64 64" width="512" xmlns="http://www.w3.org/2000/svg"><g><g><g><path d="m59 4c1.66 0 3 1.34 3 3s-1.34 3-3 3h-10c-1.66 0-3-1.34-3-3s1.34-3 3-3c.22 0 .44.03.64.07.86-1.23 2.48-2.07 4.36-2.07s3.5.84 4.36 2.07c.2-.04.42-.07.64-.07z" fill="#e6e9ed"/></g><g><path d="m18 30v4l-1.48.54c-.04.09-.07.19-.11.28l.66 1.42-2.83 2.83-1.42-.66c-.09.04-.19.07-.28.11l-.54 1.48h-4l-.54-1.48c-.09-.04-.19-.07-.28-.11l-1.42.66-2.83-2.83.66-1.42c-.04-.09-.07-.19-.11-.28l-1.48-.54v-4l1.48-.54c.04-.09.07-.19.11-.28l-.66-1.42 2.83-2.83 1.42.66c.09-.04.19-.07.28-.11l.54-1.48h4l.54 1.48c.09.04.19.07.28.11l1.42-.66 2.83 2.83-.66 1.42c.04.09.07.19.11.28zm-4 2c0-2.21-1.79-4-4-4s-4 1.79-4 4 1.79 4 4 4 4-1.79 4-4z" fill="#fcd770"/></g><g><circle cx="54" cy="32" fill="#ff826e" r="3"/></g><g><circle cx="10" cy="5" fill="#ff826e" r="3"/></g><g><path d="m20.36 11.21c.85-1.03 2.04-1.79 3.39-2.08l.01.01c.89-1.58 2.5-2.71 4.42-2.91 1.25-.13 2.58-.23 3.82-.23 1.82 0 4.67.62 7.25 1.3 3.39.89 5.75 3.98 5.75 7.49 0 1.87-.68 3.67-1.89 5.08-.54-.53-1.28-.87-2.11-.87h-1v-2l-13-3-3 1v4h-1c-1.07 0-2 .55-2.53 1.39l-1.16-3.46c-.21-.62-.31-1.26-.31-1.91 0-1.44.51-2.77 1.36-3.81z" fill="#656d78"/></g><g><path d="m35.4 32.98.6 3.02-4 4-4-4 .6-3.02c.13.01.26.02.4.02h6c.14 0 .27-.01.4-.02z" fill="#f0d0b4"/></g><g><path d="m43.12 19.88c.54.54.88 1.29.88 2.12 0 1.66-1.34 3-3 3h-1v-4-2h1c.83 0 1.57.34 2.11.87z" fill="#f0d0b4"/></g><g><path d="m27 14 13 3v2c0-.55-.45-1-1-1h-4c-.55 0-1 .45-1 1v1h-4v-1c0-.55-.45-1-1-1h-4c-.55 0-1 .45-1 1v-4z" fill="#f0d0b4"/></g><g><path d="m40 25v3c0 2.62-2.03 4.78-4.6 4.98-.13.01-.26.02-.4.02h-6c-.14 0-.27-.01-.4-.02-2.57-.2-4.6-2.36-4.6-4.98v-3-4c0 .55.45 1 1 1h4c.55 0 1-.45 1-1v-1h4v1c0 .55.45 1 1 1h4c.55 0 1-.45 1-1z" fill="#f0d0b4"/></g><g><path d="m24 19v2 4h-1c-.83 0-1.58-.34-2.12-.88s-.88-1.29-.88-2.12c0-.59.17-1.14.47-1.6v-.01c.53-.84 1.46-1.39 2.53-1.39z" fill="#f0d0b4"/></g><g><path d="m43 50v-2c0-2.21-1.79-4-4-4h-2l.86-7.74c2.9.61 5.46 2.11 7.39 4.19 2.33 2.51 3.75 5.87 3.75 9.55 0 1.66-.67 3.16-1.76 4.24-1.08 1.09-2.58 1.76-4.24 1.76z" fill="#b4dd7f"/></g><g><path d="m37 44h-10l5-4z" fill="#b4dd7f"/></g><g><path d="m16.76 54.24c-1.09-1.08-1.76-2.58-1.76-4.24 0-3.68 1.42-7.04 3.75-9.55 1.93-2.08 4.49-3.58 7.39-4.19l.86 7.74h-2c-2.21 0-4 1.79-4 4v2 6c-1.66 0-3.16-.67-4.24-1.76z" fill="#b4dd7f"/></g><g><path d="m21 58h22c0 2.21-1.79 4-4 4h-14c-2.21 0-4-1.79-4-4z" fill="#aab2bd"/></g><g><path d="m43 56v2h-22v-2-6-2c0-2.21 1.79-4 4-4h2 10 2c2.21 0 4 1.79 4 4v2z" fill="#ccd1d9"/></g><g><path d="m37.86 36.26-.86 7.74-5-4 4-4c.63.05 1.26.14 1.86.26z" fill="#a0d468"/></g><g><path d="m32 40-5 4-.86-7.74c.6-.12 1.23-.21 1.86-.26z" fill="#a0d468"/></g><g><circle cx="32" cy="50" fill="#69d6f4" r="2"/></g><g><path d="m40 19v2c0 .55-.45 1-1 1h-4c-.55 0-1-.45-1-1v-1-1c0-.55.45-1 1-1h4c.55 0 1 .45 1 1z" fill="#69d6f4"/></g><g><path d="m30 20v1c0 .55-.45 1-1 1h-4c-.55 0-1-.45-1-1v-2c0-.55.45-1 1-1h4c.55 0 1 .45 1 1z" fill="#69d6f4"/></g></g><g><path d="m44 58v-1.08c3.387-.487 6-3.4 6-6.919 0-7.574-5.723-13.985-13.165-14.922l-.259-1.296c2.545-.695 4.424-3.021 4.424-5.783v-2c2.206 0 4-1.794 4-4 0-.785-.235-1.513-.628-2.131 1.054-1.478 1.628-3.252 1.628-5.08 0-3.973-2.673-7.45-6.5-8.458-3.355-.884-5.878-1.331-7.5-1.331-1.143 0-2.465.079-3.929.234-2.109.223-3.898 1.393-4.977 3.061-2.972.853-5.094 3.597-5.094 6.727 0 .757.121 1.504.36 2.221l1.024 3.073c-.24.514-.384 1.08-.384 1.684 0 2.206 1.794 4 4 4v2c0 2.762 1.879 5.088 4.424 5.783l-.259 1.296c-7.442.937-13.165 7.348-13.165 14.922 0 3.519 2.613 6.432 6 6.919v1.08c0 1.13.391 2.162 1.026 3h-20.026v2h24 14 24v-2h-20.026c.635-.838 1.026-1.87 1.026-3zm-9.42-24 .334 1.671-2.914 2.915-2.915-2.915.335-1.671zm-2.58 7.281 2.149 1.719h-4.298zm1.497-1.364 2.866-2.866c.133.014.266.031.398.049l-.554 4.985zm-2.994 0-2.71 2.168-.554-4.985c.132-.018.264-.035.398-.049zm8.497 5.083c1.654 0 3 1.346 3 3v9h-20v-9c0-1.654 1.346-3 3-3zm9 5.001c0 2.415-1.721 4.434-4 4.898v-3.899h2v-2h-2v-1c0-2.757-2.243-5-5-5h-.883l.607-5.469c5.376 1.636 9.276 6.652 9.276 12.47zm-15-31.001h-2c0-1.103-.897-2-2-2h-4v-1.279l2.049-.683 8.502 1.962h-.551c-1.103 0-2 .897-2 2zm-8 0h4l.001 2h-4.001zm10 0h4v2h-4zm6 5v-3-1c1.103 0 2 .897 2 2s-.897 2-2 2zm-18.917-13.026c-.05.336-.083.677-.083 1.026h2c0-2.466 1.841-4.519 4.282-4.777 1.394-.148 2.645-.223 3.718-.223 1.43 0 3.847.438 6.991 1.265 2.949.776 5.009 3.46 5.009 6.524 0 1.325-.407 2.602-1.128 3.698-.561-.301-1.192-.487-1.872-.487v-1.796l-14.049-3.242-3.951 1.317v3.721c-.764 0-1.471.226-2.079.599l-.663-1.989c-.171-.512-.258-1.047-.258-1.588 0-1.637.818-3.122 2.083-4.048zm-1.083 11.026c0-1.103.897-2 2-2v1 3c-1.103 0-2-.897-2-2zm4 6v-5h4c1.103 0 2-.897 2-2h2c0 1.103.897 2 2 2h4v5c0 2.206-1.794 4-4 4h-6c-2.206 0-4-1.794-4-4zm-9 22.001c0-5.818 3.9-10.834 9.276-12.47l.607 5.469h-.883c-2.757 0-5 2.243-5 5v1h-2v2h2v3.899c-2.279-.464-4-2.483-4-4.898zm9 10.999c-1.302 0-2.402-.839-2.816-2h19.631c-.414 1.161-1.514 2-2.816 2z"/><path d="m32 53v-2c-.551 0-1-.448-1-1s.449-1 1-1 1 .448 1 1h2c0-1.654-1.346-3-3-3s-3 1.346-3 3 1.346 3 3 3z"/><path d="m37 26h-2c0 1.103-.897 2-2 2l-4-.001v2l4 .001c2.206 0 4-1.794 4-4z"/><path d="m1.726 36.454 3.82 3.82 1.273-.596.48 1.322h5.401l.48-1.321 1.273.596 3.82-3.82-.595-1.273 1.322-.481v-5.402l-1.321-.479.595-1.273-3.82-3.82-1.273.596-.48-1.323h-5.402l-.48 1.321-1.273-.596-3.82 3.82.595 1.273-1.321.481v5.402l1.321.479zm1.274-5.753.823-.3.447-.212.423-1.019-.562-1.2 1.837-1.838 1.2.56 1.08-.445.453-1.247h2.599l.299.823.203.442 1.031.426 1.2-.56 1.837 1.838-.562 1.201.447 1.077 1.245.454v2.598l-.823.3-.447.212-.423 1.019.562 1.201-1.837 1.838-1.198-.56-1.081.445-.454 1.246h-2.598l-.299-.823-.204-.443-1.031-.425-1.198.56-1.838-1.839.562-1.201-.447-1.077-1.246-.453z"/><path d="m10 37c2.757 0 5-2.243 5-5s-2.243-5-5-5-5 2.243-5 5 2.243 5 5 5zm0-8c1.654 0 3 1.346 3 3s-1.346 3-3 3-3-1.346-3-3 1.346-3 3-3z"/><path d="m10 9c2.206 0 4-1.794 4-4s-1.794-4-4-4-4 1.794-4 4 1.794 4 4 4zm0-6c1.103 0 2 .897 2 2s-.897 2-2 2-2-.897-2-2 .897-2 2-2z"/><path d="m49 11h10c2.206 0 4-1.794 4-4 0-2.278-1.939-4.104-4.216-3.994-1.123-1.25-2.899-2.006-4.784-2.006s-3.661.756-4.784 2.006c-2.257-.114-4.216 1.716-4.216 3.994 0 2.206 1.794 4 4 4zm0-6c.137 0 .277.017.429.05l.655.145.382-.552c.702-1.013 2.056-1.643 3.534-1.643s2.832.63 3.534 1.643l.382.552.655-.145c.152-.033.292-.05.429-.05 1.103 0 2 .897 2 2s-.897 2-2 2h-10c-1.103 0-2-.897-2-2s.897-2 2-2z"/><path d="m50 32c0 2.206 1.794 4 4 4s4-1.794 4-4-1.794-4-4-4-4 1.794-4 4zm4-2c1.103 0 2 .897 2 2s-.897 2-2 2-2-.897-2-2 .897-2 2-2z"/><path d="m53 13h2v12h-2z"/><path d="m42 31h6v2h-6z"/><path d="m9 11h2v10h-2z"/><path d="m16 4h6v2h-6z"/></g></g></svg>