<svg height="512pt" viewBox="0 0 512 512" width="512pt" xmlns="http://www.w3.org/2000/svg"><path d="m8 88h272v384h-272zm0 0" fill="#91e8ed"/><path d="m8 8h272v80h-272zm0 0" fill="#ffea00"/><path d="m408 160v24h-224v200c0 13.253906-10.746094 24-24 24h320c13.253906 0 24-10.746094 24-24v-248h-72c-13.253906 0-24 10.746094-24 24zm0 0" fill="#00c3ff"/><path d="m408 184v-32h-272v232c0 13.253906 10.746094 24 24 24s24-10.746094 24-24v-200zm0 0" fill="#ffea00"/><g fill="#fff"><path d="m64 432h16v16h-16zm0 0"/><path d="m96 432h16v16h-16zm0 0"/><path d="m128 432h16v16h-16zm0 0"/><path d="m32 432h16v16h-16zm0 0"/><path d="m64 368h16v16h-16zm0 0"/><path d="m96 368h16v16h-16zm0 0"/><path d="m32 368h16v16h-16zm0 0"/><path d="m64 304h16v16h-16zm0 0"/><path d="m32 304h16v16h-16zm0 0"/><path d="m96 304h16v16h-16zm0 0"/><path d="m64 240h16v16h-16zm0 0"/><path d="m32 240h16v16h-16zm0 0"/><path d="m96 240h16v16h-16zm0 0"/><path d="m64 112h16v16h-16zm0 0"/><path d="m32 112h16v16h-16zm0 0"/><path d="m96 112h16v16h-16zm0 0"/><path d="m128 112h16v16h-16zm0 0"/><path d="m64 176h16v16h-16zm0 0"/><path d="m32 176h16v16h-16zm0 0"/><path d="m96 176h16v16h-16zm0 0"/><path d="m288 336h-24c-22.089844 0-40-17.910156-40-40s17.910156-40 40-40h24v16h-24c-13.253906 0-24 10.746094-24 24s10.746094 24 24 24h24zm0 0"/><path d="m352 336h-16v-56c0-4.417969-3.582031-8-8-8s-8 3.582031-8 8v56h-16v-56c0-13.253906 10.746094-24 24-24s24 10.746094 24 24zm0 0"/><path d="m384 336h-16v-56c0-4.417969-3.582031-8-8-8s-8 3.582031-8 8v56h-16v-56c0-13.253906 10.746094-24 24-24s24 10.746094 24 24zm0 0"/><path d="m440 336h-40v-16h40c4.417969 0 8-3.582031 8-8s-3.582031-8-8-8h-16c-13.253906 0-24-10.746094-24-24s10.746094-24 24-24h40v16h-40c-4.417969 0-8 3.582031-8 8s3.582031 8 8 8h16c13.253906 0 24 10.746094 24 24s-10.746094 24-24 24zm0 0"/></g><path d="m432 128c-11.378906.035156-21.878906 6.132812-27.550781 16h-116.449219v-144h-288v480h288v-64h192c17.671875 0 32-14.328125 32-32v-256zm-32 32v16h-224v208c0 8.835938-7.164062 16-16 16s-16-7.164062-16-16v-224zm-384-112h16v-16h-16v-16h256v16h-16v16h16v32h-256zm0 48h256v48h-256zm0 64h112v48h-112zm0 64h112v48h-112zm0 64h112v48h-112zm0 64h112v32c.03125 5.632812 1.570312 11.15625 4.449219 16h-116.449219zm256 112h-256v-48h256zm224-80c0 8.835938-7.164062 16-16 16h-292.296875c.617187-1.078125 1.167969-2.1875 1.65625-3.328125 0-.097656.097656-.183594.136719-.28125.703125-1.710937 1.253906-3.480469 1.648437-5.285156.101563-.457031.191407-.90625.269531-1.363281.371094-1.890626.566407-3.8125.585938-5.742188v-192h224v-32c0-8.835938 7.164062-16 16-16h64zm0 0"/><path d="m16 496h48v16h-48zm0 0"/><path d="m224 496h48v16h-48zm0 0"/><path d="m160 432h96v16h-96zm0 0"/><path d="m160 112h80v16h-80zm0 0"/><path d="m48 32h192v16h-192zm0 0"/></svg>