<svg height='300px' width='300px'  fill="#000000" xmlns="http://www.w3.org/2000/svg" xmlns:xlink="http://www.w3.org/1999/xlink" version="1.1" x="0px" y="0px" viewBox="0 0 128 128" enable-background="new 0 0 128 128" xml:space="preserve"><g><path d="M43.9,31.1c3.7-0.2,7.1,0,10.2,0.5c0.8,0.1,1.7,0.3,2.5,0.3c0.9,0,1.8-0.1,2.7-0.6c1.1-0.5,2-1.3,2.5-2.4   c1.5,1.9,2.1,4.1,2.2,4.5v6.4H21.5c-2.9,0-5.3,2.4-5.3,5.3v51.2c0,0.4,0.3,0.7,0.7,0.7h95.3c0.4,0,0.7-0.3,0.7-0.7V45.2   c0-2.9-2.4-5.3-5.3-5.3H65.4l0-11.4c0.1-0.4,0.9-4.1,3.5-7.1c0.7,1.9,2.1,3.3,3.9,4.1c1.3,0.6,2.6,0.8,3.9,0.8   c1.2,0,2.4-0.2,3.6-0.4c4.6-0.7,9.6-0.9,15.1-0.7c0.4,0,0.7-0.3,0.8-0.6c0-0.4-0.2-0.7-0.6-0.8c-3.3-0.7-6.3-4.6-8.4-7.4   c-0.3-0.3-0.5-0.6-0.7-0.9c-2.4-3.1-6.1-5.1-9.5-5.2c-2.5-0.1-4.7,0.9-6.4,2.8c-1.6,1.8-2.3,4.2-2,6.6c-1.4,1.4-2.4,3-3,4.4l0-10.9   c-0.1-1.5,0.1-5.6,2.1-6.4c0.4-0.2,0.6-0.6,0.4-1c-0.2-0.4-0.6-0.6-1-0.4c-3.4,1.4-3.1,7.6-3.1,7.8v16.2c-0.4-0.7-1-1.5-1.6-2.1   c0.3-1.8-0.2-3.6-1.4-4.9c-1.2-1.3-2.8-2-4.5-1.9c-2.4,0.1-5,1.5-6.6,3.6l-0.5,0.6c-1.4,1.9-3.4,4.5-5.6,4.9   c-0.4,0.1-0.6,0.4-0.6,0.8C43.2,30.9,43.5,31.2,43.9,31.1z M111.5,45.2v50.5H17.6V45.2c0-2.1,1.7-3.8,3.8-3.8h86.2   C109.8,41.3,111.5,43,111.5,45.2z M71.5,14c1.4-1.5,3.1-2.3,5-2.3c0.1,0,0.2,0,0.3,0c3.4,0.1,6.7,2.4,8.4,4.7   c0.2,0.3,0.5,0.6,0.7,0.9c1.6,2.1,3.6,4.7,6,6.4c-4.2,0-8.2,0.2-11.9,0.8c-2.4,0.4-4.4,0.7-6.7-0.3c-1.7-0.8-2.9-2.2-3.3-4   c0.7-0.6,1.5-1.2,2.4-1.6c0.3,0,1.7,0,4.2,1.9c0.1,0.1,0.3,0.1,0.4,0.1c0.2,0,0.4-0.1,0.6-0.3c0.2-0.3,0.2-0.8-0.1-1   c-1-0.8-1.9-1.3-2.6-1.6c0.9-0.1,4.5-0.4,8.1,3.5c0.3,0.3,0.7,0.3,1,0.1c0.3-0.3,0.3-0.7,0.1-1c-4.6-5.1-9.5-3.9-9.7-3.9   c-1.8,0.4-3.2,1.2-4.4,2.1C69.8,16.8,70.4,15.2,71.5,14z M50.4,25.6l0.5-0.6c1.2-1.5,3.3-3,5.5-3.1c1.3,0,2.5,0.4,3.4,1.5   c0.7,0.7,1,1.7,1.1,2.7c-0.8-0.5-1.7-0.9-2.7-1.2c-0.1,0-2-0.5-4.3,0.7c-0.4,0.2-0.5,0.6-0.3,1c0.2,0.4,0.6,0.5,1,0.3   c1.8-0.9,3.2-0.6,3.3-0.6c1.1,0.3,2,0.8,2.8,1.4c-0.4,1-1,1.7-2,2.1c-1.5,0.6-2.7,0.4-4.4,0.2c-2.3-0.4-4.8-0.5-7.4-0.5   C48.3,28.4,49.5,26.9,50.4,25.6z"></path><path d="M100.4,20.9c0.1,0.1,0.3,0.2,0.5,0.2c0.2,0,0.4-0.1,0.5-0.2c0.3-0.3,0.3-0.8,0-1l-1.6-1.6c-0.3-0.3-0.8-0.3-1,0   c-0.3,0.3-0.3,0.8,0,1L100.4,20.9z"></path><path d="M105.6,26.1c0.1,0.1,0.3,0.2,0.5,0.2c0.2,0,0.4-0.1,0.5-0.2c0.3-0.3,0.3-0.8,0-1l-1.6-1.6c-0.3-0.3-0.8-0.3-1,0   c-0.3,0.3-0.3,0.8,0,1L105.6,26.1z"></path><path d="M99.3,26.3c0.2,0,0.4-0.1,0.5-0.2l1.6-1.6c0.3-0.3,0.3-0.8,0-1c-0.3-0.3-0.8-0.3-1,0L98.8,25c-0.3,0.3-0.3,0.8,0,1   C98.9,26.2,99.1,26.3,99.3,26.3z"></path><path d="M104.5,21.1c0.2,0,0.4-0.1,0.5-0.2l1.6-1.6c0.3-0.3,0.3-0.8,0-1c-0.3-0.3-0.8-0.3-1,0l-1.6,1.6c-0.3,0.3-0.3,0.8,0,1   C104.1,21,104.3,21.1,104.5,21.1z"></path><path d="M1.8,113.9c-0.3-0.3-0.8-0.3-1,0c-0.3,0.3-0.3,0.8,0,1l1.6,1.6c0.1,0.1,0.3,0.2,0.5,0.2s0.4-0.1,0.5-0.2   c0.3-0.3,0.3-0.8,0-1L1.8,113.9z"></path><path d="M7,119.1c-0.3-0.3-0.8-0.3-1,0c-0.3,0.3-0.3,0.8,0,1l1.6,1.6c0.1,0.1,0.3,0.2,0.5,0.2c0.2,0,0.4-0.1,0.5-0.2   c0.3-0.3,0.3-0.8,0-1L7,119.1z"></path><path d="M2.3,119.1l-1.6,1.6c-0.3,0.3-0.3,0.8,0,1c0.1,0.1,0.3,0.2,0.5,0.2c0.2,0,0.4-0.1,0.5-0.2l1.6-1.6c0.3-0.3,0.3-0.8,0-1   C3.1,118.9,2.6,118.9,2.3,119.1z"></path><path d="M7.5,113.9l-1.6,1.6c-0.3,0.3-0.3,0.8,0,1c0.1,0.1,0.3,0.2,0.5,0.2c0.2,0,0.4-0.1,0.5-0.2l1.6-1.6c0.3-0.3,0.3-0.8,0-1   S7.8,113.7,7.5,113.9z"></path><path d="M119.5,68.5c0.1,0.1,0.3,0.2,0.5,0.2c0.2,0,0.4-0.1,0.5-0.2c0.3-0.3,0.3-0.8,0-1l-1.6-1.6c-0.3-0.3-0.8-0.3-1,0   c-0.3,0.3-0.3,0.8,0,1L119.5,68.5z"></path><path d="M124.7,73.7c0.1,0.1,0.3,0.2,0.5,0.2c0.2,0,0.4-0.1,0.5-0.2c0.3-0.3,0.3-0.8,0-1l-1.6-1.6c-0.3-0.3-0.8-0.3-1,0   c-0.3,0.3-0.3,0.8,0,1L124.7,73.7z"></path><path d="M118.4,74c0.2,0,0.4-0.1,0.5-0.2l1.6-1.6c0.3-0.3,0.3-0.8,0-1c-0.3-0.3-0.8-0.3-1,0l-1.6,1.6c-0.3,0.3-0.3,0.8,0,1   C118,73.9,118.2,74,118.4,74z"></path><path d="M123.6,68.8c0.2,0,0.4-0.1,0.5-0.2l1.6-1.6c0.3-0.3,0.3-0.8,0-1s-0.8-0.3-1,0l-1.6,1.6c-0.3,0.3-0.3,0.8,0,1   C123.2,68.7,123.4,68.8,123.6,68.8z"></path><path d="M4.6,42.3c0.4,0,0.7-0.3,0.7-0.7V29.8c0-0.4-0.3-0.7-0.7-0.7c-0.4,0-0.7,0.3-0.7,0.7v11.8C3.9,42,4.2,42.3,4.6,42.3z"></path><path d="M4.6,52.1c0.4,0,0.7-0.3,0.7-0.7v-4.2c0-0.4-0.3-0.7-0.7-0.7c-0.4,0-0.7,0.3-0.7,0.7v4.2C3.9,51.8,4.2,52.1,4.6,52.1z"></path><path d="M120,22.9c0.4,0,0.7-0.3,0.7-0.7V10.4c0-0.4-0.3-0.7-0.7-0.7c-0.4,0-0.7,0.3-0.7,0.7v11.8C119.2,22.6,119.6,22.9,120,22.9z   "></path><path d="M120,32.6c0.4,0,0.7-0.3,0.7-0.7v-4.2c0-0.4-0.3-0.7-0.7-0.7c-0.4,0-0.7,0.3-0.7,0.7v4.2C119.2,32.3,119.6,32.6,120,32.6z"></path><path d="M48.7,113.2c-1.9,0-3.5,1.6-3.5,3.5c0,1.9,1.6,3.5,3.5,3.5c1.9,0,3.5-1.6,3.5-3.5C52.2,114.7,50.6,113.2,48.7,113.2z    M48.7,118.7c-1.1,0-2-0.9-2-2s0.9-2,2-2c1.1,0,2,0.9,2,2S49.8,118.7,48.7,118.7z"></path><path d="M8.1,82.8c0-1.9-1.6-3.5-3.5-3.5s-3.5,1.6-3.5,3.5c0,1.9,1.6,3.5,3.5,3.5S8.1,84.7,8.1,82.8z M4.6,84.8c-1.1,0-2-0.9-2-2   s0.9-2,2-2s2,0.9,2,2S5.8,84.8,4.6,84.8z"></path><path d="M20.7,20.6c0,0.4,0.3,0.7,0.7,0.7h15.4c0.4,0,0.7-0.3,0.7-0.7c0-0.4-0.3-0.7-0.7-0.7H21.5C21.1,19.9,20.7,20.2,20.7,20.6z"></path><path d="M11.4,21.4h5c0.4,0,0.7-0.3,0.7-0.7c0-0.4-0.3-0.7-0.7-0.7h-5c-0.4,0-0.7,0.3-0.7,0.7C10.7,21,11,21.4,11.4,21.4z"></path><path d="M11.4,16.1h10.8c0.4,0,0.7-0.3,0.7-0.7c0-0.4-0.3-0.7-0.7-0.7H11.4c-0.4,0-0.7,0.3-0.7,0.7C10.7,15.7,11,16.1,11.4,16.1z"></path><path d="M26.8,16.1h3.5c0.4,0,0.7-0.3,0.7-0.7c0-0.4-0.3-0.7-0.7-0.7h-3.5c-0.4,0-0.7,0.3-0.7,0.7C26.1,15.7,26.4,16.1,26.8,16.1z"></path><path d="M117.4,116.7c0-0.4-0.3-0.7-0.7-0.7h-15.4c-0.4,0-0.7,0.3-0.7,0.7c0,0.4,0.3,0.7,0.7,0.7h15.4   C117.1,117.4,117.4,117.1,117.4,116.7z"></path><path d="M121,116.7c0,0.4,0.3,0.7,0.7,0.7h5c0.4,0,0.7-0.3,0.7-0.7c0-0.4-0.3-0.7-0.7-0.7h-5C121.4,115.9,121,116.3,121,116.7z"></path><path d="M126.8,121.2H116c-0.4,0-0.7,0.3-0.7,0.7c0,0.4,0.3,0.7,0.7,0.7h10.8c0.4,0,0.7-0.3,0.7-0.7   C127.5,121.5,127.2,121.2,126.8,121.2z"></path><path d="M111.4,121.2h-3.5c-0.4,0-0.7,0.3-0.7,0.7c0,0.4,0.3,0.7,0.7,0.7h3.5c0.4,0,0.7-0.3,0.7-0.7   C112.1,121.5,111.8,121.2,111.4,121.2z"></path><path d="M121.8,104.1l1.1-1.9c0.2-0.4,0.2-0.9,0-1.3c-0.2-0.4-0.7-0.7-1.1-0.7H7.3c-0.5,0-0.9,0.3-1.1,0.7c-0.2,0.4-0.2,0.9,0,1.3   l1.1,1.9c1.9,3.2,5.5,5.2,9.2,5.2h96C116.3,109.3,119.8,107.3,121.8,104.1z M8.6,103.3l-1-1.6h113.8l-1,1.6c-1.7,2.8-4.7,4.5-8,4.5   h-96C13.3,107.8,10.3,106.1,8.6,103.3z"></path><path d="M21.7,47.8c0,0.4,0.3,0.7,0.7,0.7h50.8c0.4,0,0.7-0.3,0.7-0.7c0-0.4-0.3-0.7-0.7-0.7H22.5C22.1,47.1,21.7,47.4,21.7,47.8z"></path><path d="M21.7,58.7c0,0.4,0.3,0.7,0.7,0.7h59c0.4,0,0.7-0.3,0.7-0.7c0-0.4-0.3-0.7-0.7-0.7h-59C22.1,58,21.7,58.3,21.7,58.7z"></path><path d="M22.5,63.5c-0.4,0-0.7,0.3-0.7,0.7c0,0.4,0.3,0.7,0.7,0.7h72.9c0.4,0,0.7-0.3,0.7-0.7c0-0.4-0.3-0.7-0.7-0.7H22.5z"></path><path d="M62.7,54c0.4,0,0.7-0.3,0.7-0.7c0-0.4-0.3-0.7-0.7-0.7h-0.2c-0.4,0-0.7,0.3-0.7,0.7c0,0.4,0.3,0.7,0.7,0.7H62.7z"></path><path d="M46.6,54c0.4,0,0.7-0.3,0.7-0.7c0-0.4-0.3-0.7-0.7-0.7h-0.2c-0.4,0-0.7,0.3-0.7,0.7c0,0.4,0.3,0.7,0.7,0.7H46.6z"></path><path d="M22.5,54h4.9c0.4,0,0.7-0.3,0.7-0.7c0-0.4-0.3-0.7-0.7-0.7h-4.9c-0.4,0-0.7,0.3-0.7,0.7C21.7,53.7,22.1,54,22.5,54z"></path><path d="M30.5,54c0.4,0,0.7-0.3,0.7-0.7c0-0.4-0.3-0.7-0.7-0.7h-0.2c-0.4,0-0.7,0.3-0.7,0.7c0,0.4,0.3,0.7,0.7,0.7H30.5z"></path><path d="M54.4,54C54.5,54,54.5,54,54.4,54c0.1,0,0.2,0,0.2,0h4.9c0.4,0,0.7-0.3,0.7-0.7c0-0.4-0.3-0.7-0.7-0.7h-4.9   c0,0-0.1,0-0.1,0c0,0-0.1,0-0.1,0h-2.9c-0.4,0-0.7,0.3-0.7,0.7c0,0.4,0.3,0.7,0.7,0.7H54.4z"></path><path d="M70.6,52.5C70.6,52.5,70.6,52.5,70.6,52.5l-3,0c-0.4,0-0.7,0.3-0.7,0.7c0,0.4,0.3,0.7,0.7,0.7h2.9c0,0,0.1,0,0.1,0   c0,0,0.1,0,0.1,0h4.9c0.4,0,0.7-0.3,0.7-0.7c0-0.4-0.3-0.7-0.7-0.7L70.6,52.5C70.7,52.5,70.7,52.5,70.6,52.5z"></path><path d="M78.6,54h0.2c0.4,0,0.7-0.3,0.7-0.7c0-0.4-0.3-0.7-0.7-0.7h-0.2c-0.4,0-0.7,0.3-0.7,0.7C77.8,53.7,78.2,54,78.6,54z"></path><path d="M38.4,54C38.4,54,38.4,54,38.4,54c0.1,0,0.2,0,0.2,0h4.9c0.4,0,0.7-0.3,0.7-0.7c0-0.4-0.3-0.7-0.7-0.7h-4.9   c0,0-0.1,0-0.1,0c0,0-0.1,0-0.1,0h-2.9c-0.4,0-0.7,0.3-0.7,0.7c0,0.4,0.3,0.7,0.7,0.7H38.4z"></path><path d="M83.7,54h2.9c0,0,0.1,0,0.1,0c0,0,0.1,0,0.1,0h4.9c0.4,0,0.7-0.3,0.7-0.7c0-0.4-0.3-0.7-0.7-0.7h-4.9c0,0-0.1,0-0.1,0   c0,0-0.1,0-0.1,0h-2.9c-0.4,0-0.7,0.3-0.7,0.7C82.9,53.7,83.3,54,83.7,54z"></path><path d="M94.7,54h0.2c0.4,0,0.7-0.3,0.7-0.7c0-0.4-0.3-0.7-0.7-0.7h-0.2c-0.4,0-0.7,0.3-0.7,0.7C93.9,53.7,94.3,54,94.7,54z"></path><path d="M99.8,54h2.9c0,0,0.1,0,0.1,0c0,0,0.1,0,0.1,0h3.3c0.4,0,0.7-0.3,0.7-0.7c0-0.4-0.3-0.7-0.7-0.7h-3.3c0,0-0.1,0-0.1,0   c0,0-0.1,0-0.1,0h-2.9c-0.4,0-0.7,0.3-0.7,0.7C99,53.7,99.4,54,99.8,54z"></path><path d="M47.1,71.6H22.5c-0.4,0-0.7,0.3-0.7,0.7v17.6c0,0.4,0.3,0.7,0.7,0.7h24.6c0.4,0,0.7-0.3,0.7-0.7V72.3   C47.8,71.9,47.5,71.6,47.1,71.6z M46.4,89.1H23.2V73h23.1V89.1z"></path><path d="M76.6,71.6H52c-0.4,0-0.7,0.3-0.7,0.7v17.6c0,0.4,0.3,0.7,0.7,0.7h24.6c0.4,0,0.7-0.3,0.7-0.7V72.3   C77.3,71.9,77,71.6,76.6,71.6z M75.9,89.1H52.7V73h23.1V89.1z"></path><path d="M106.1,71.6H81.5c-0.4,0-0.7,0.3-0.7,0.7v17.6c0,0.4,0.3,0.7,0.7,0.7h24.6c0.4,0,0.7-0.3,0.7-0.7V72.3   C106.8,71.9,106.5,71.6,106.1,71.6z M105.4,89.1H82.2V73h23.1V89.1z"></path></g></svg>