<svg height="512pt" viewBox="0 0 512.07633 512" width="512pt" xmlns="http://www.w3.org/2000/svg"><path d="m136.078125 512.039062v-208.058593c-.003906-14.195313 9.347656-26.695313 22.964844-30.703125l113.035156-33.238282h96l113.03125 33.238282c13.617187 4.007812 22.96875 16.507812 22.96875 30.703125v208.058593zm0 0" fill="#a6e7ff"/><path d="m440.078125 432.039062h64v80h-64zm0 0" fill="#ffe082"/><path d="m136.078125 432.039062h64v80h-64zm0 0" fill="#ffe082"/><path d="m280.078125 344.039062c38.832031-.035156 72.082031 27.820313 78.847656 66.058594 6.765625 38.238282-14.902343 75.816406-51.390625 89.109375-36.488281 13.289063-77.25-1.539062-96.667968-35.167969h-53.597657c-19.417969 33.632813-60.183593 48.460938-96.671875 35.164063-36.488281-13.296875-58.15625-50.875-51.386718-89.117187 6.773437-38.238282 40.03125-66.089844 78.867187-66.046876zm0 0" fill="#ff8a65"/><path d="m320.078125 314.964844c38.894531.171875 72.394531-27.394532 79.710937-65.597656l-31.710937-9.328126h-96l-31.714844 9.328126c7.316407 38.203124 40.816407 65.769531 79.714844 65.597656zm0 0" fill="#2ac3f2"/><path d="m272.078125 192.039062v48c2.46875 24.65625 23.21875 43.433594 48 43.433594 24.777344 0 45.53125-18.777344 48-43.433594v-48zm0 0" fill="#ffd54f"/><path d="m392.078125 48.039062v64c8.835937 0 16 7.164063 16 16 0 10.347657-3.578125 20.375-10.128906 28.382813l-5.871094 7.199219v20.417968l-48 32h-48l-48-32v-20.441406l-5.875-7.199218c-6.546875-8-10.125-18.023438-10.125-28.359376 0-8.835937 7.160156-16 16-16v-64zm0 0" fill="#ffe082"/><path d="m248.078125 96.039062c-.042969-17.25 11.003906-32.570312 27.378906-37.980468 16.378907-5.410156 34.378907.316406 44.621094 14.195312 10.238281-13.878906 28.238281-19.605468 44.617187-14.195312 16.375 5.410156 27.421876 20.730468 27.382813 37.980468v-55.59375c.109375-17.785156-14.214844-32.292968-32-32.40625h-136c15.382813 15.757813 23.996094 36.910157 24 58.933594zm0 0" fill="#757575"/><path d="m264.078125 112.039062h40v32h-40zm0 0" fill="#a6e7ff"/><path d="m336.078125 112.039062h40v32h-40zm0 0" fill="#a6e7ff"/><g fill="#fff"><path d="m49.421875 452.476562-18.960937-28.4375 18.960937-28.441406 13.308594 8.878906-13.039063 19.5625 13.039063 19.558594zm0 0"/><path d="m126.730469 452.476562-13.308594-8.878906 13.039063-19.558594-13.039063-19.5625 13.308594-8.878906 18.960937 28.441406zm0 0"/><path d="m72.480469 445.503906 16.015625-47.996094 15.167968 5.0625-16.015624 47.996094zm0 0"/><path d="m272.078125 416.039062h16v16h-16zm0 0"/><path d="m312.078125 416.039062h16v16h-16zm0 0"/><path d="m232.078125 416.039062h16v16h-16zm0 0"/></g><path d="m483.363281 265.636719-107.285156-31.582031v-29.738282l24-16v-21.878906l4.054687-4.960938c7.710938-9.4375 11.929688-21.25 11.945313-33.4375-.015625-10.167968-6.421875-19.230468-16-22.632812v-64.960938c.085937-22.195312-17.808594-40.269531-40-40.4062495h-154.992187l13.261718 13.5976565c13.960938 14.242187 21.761719 33.398437 21.730469 53.335937v38.402344c-9.59375 3.40625-16.003906 12.484375-16 22.664062h-192c-17.675781 0-32 14.324219-32 32 0 17.671876 14.324219 32 32 32h96c13.253906 0 24 10.746094 24 24 0 13.253907-10.746094 24-24 24h-44c-19.882813 0-36 16.117188-36 36 0 19.882813 16.117187 36 36 36h76c8.835937 0 16 7.164063 16 16v8h-88c-42.128906-.039062-78.371094 29.785157-86.445313 71.128907-8.074218 41.34375 14.28125 82.613281 53.324219 98.429687 39.042969 15.820313 83.820313 1.746094 106.800781-33.558594h44.636719c22.980469 35.304688 67.757813 49.378907 106.800781 33.558594 39.042969-15.816406 61.402344-57.085937 53.324219-98.429687-8.074219-41.34375-44.316406-71.167969-86.441406-71.128907h-88v-8c0-17.675781-14.328125-32-32-32h-76c-11.046875 0-20-8.957031-20-20 0-11.046874 8.953125-20 20-20h44c22.089844 0 40-17.910156 40-40 0-22.09375-17.910156-40-40-40h-96c-8.839844 0-16-7.164062-16-16 0-8.835937 7.160156-16 16-16h194.613281c1.980469 6.351563 5.144532 12.269532 9.320313 17.445313l4.066406 4.953125v21.863281l24 16v29.738281l-107.289063 31.597657 4.511719 15.34375 73.246094-21.535157c11.371094 37.730469 46.125 63.550782 85.53125 63.550782 39.402344 0 74.15625-25.820313 85.527344-63.550782l73.246093 21.535157c10.175782 3.046875 17.164063 12.382812 17.226563 23v120.058593h-48v-72h-16v160h16v-72h48v72h16v-208.058593c-.089844-17.707031-11.746094-33.273438-28.714844-38.34375zm-203.285156 86.402343c34.949219-.03125 64.871094 25.039063 70.960937 59.453126 6.089844 34.414062-13.414062 68.234374-46.25 80.195312-32.839843 11.964844-69.527343-1.382812-87-31.648438l-2.3125-4h-62.800781l-2.3125 4c-17.472656 30.265626-54.160156 43.613282-87 31.648438-32.835937-11.960938-52.339843-45.78125-46.25-80.195312 6.089844-34.414063 36.011719-59.484376 70.964844-59.453126zm80-336c13.359375.125 24.097656 11.046876 24 24.40625v19.839844c-8.789063-7.890625-20.1875-12.253906-32-12.246094-11.839844-.03125-23.253906 4.375-32 12.351563-8.746094-7.976563-20.164063-12.382813-32-12.351563-11.921875-.011718-23.414063 4.433594-32.226563 12.457032-1.074218-15.878906-6.265624-31.199219-15.0625-44.457032zm-32 88v16h-16v-16h-56v-8c0-17.675781 14.324219-32 32-32 10.117187-.003906 19.632813 4.824219 25.597656 13l6.402344 8.597657 6.398437-8.613281c5.96875-8.167969 15.484376-12.992188 25.601563-12.984376 17.671875 0 32 14.324219 32 32v8zm40 16v16h-24v-16zm-72 0v16h-24v-16zm-40 59.71875v-19.007812l-7.683594-9.398438c-5.375-6.582031-8.3125-14.816406-8.316406-23.3125 0-4.417968 3.578125-8 8-8h8v32h56v-16h16v16h56v-32h8c4.417969 0 8 3.582032 8 8-.007813 8.5-2.949219 16.738282-8.328125 23.320313l-7.671875 9.390625v19.007812l-42.402344 28.28125h-43.199219zm104 35.199219v24.503907c-2.171875 20.460937-19.425781 35.984374-40 35.984374s-37.832031-15.523437-40-35.984374v-24.480469l13.597656 9.058593h52.800781zm-40 92c-32.394531.253907-61.03125-20.988281-70.1875-52.0625l16-4.695312c6.738281 24.378906 28.921875 41.265625 54.21875 41.265625 25.292969 0 47.476563-16.886719 54.214844-41.265625l16 4.695312c-9.15625 31.097657-37.828125 52.351563-70.246094 52.070313zm0 0"/><path d="m160.078125 96.039062h56v16h-56zm0 0"/><path d="m184.078125 160.039062h32v16h-32zm0 0"/></svg>