<svg height='300px' width='300px'  fill="#000000" xmlns="http://www.w3.org/2000/svg" xmlns:xlink="http://www.w3.org/1999/xlink" xml:space="preserve" version="1.1" style="shape-rendering:geometricPrecision;text-rendering:geometricPrecision;image-rendering:optimizeQuality;" viewBox="0 0 60000 60000" x="0px" y="0px" fill-rule="evenodd" clip-rule="evenodd"><defs><style type="text/css">
   
    .fil0 {fill:#000000;fill-rule:nonzero}
   
  </style></defs><g><path class="fil0" d="M30000 680.89c5025.57,0 9575.41,2037.05 12868.87,5330.5 3293.45,3293.46 5330.5,7843.3 5330.5,12868.87 0,5025.57 -2037.05,9575.42 -5330.5,12868.87 -849.41,849.41 -1782.58,1614.99 -2785.74,2283.86 -504.47,366.64 -926.81,781.73 -1263.02,1220.51 -509.93,665.5 -819.77,1381.88 -915.17,2060.91 -91.72,652.86 15.3,1268.63 334.77,1762.43 127.47,197.04 289.68,376.34 487.5,532.59 233.6,117.49 445.66,271.48 628.58,454.53 439.37,439.66 711.13,1046.15 711.13,1715.51 0,669.37 -271.76,1275.86 -711.13,1715.5 -117.79,117.87 -247.65,223.68 -387.57,315.47 139.91,91.79 269.78,197.6 387.57,315.47 439.37,439.64 711.13,1046.13 711.13,1715.5 0,669.36 -271.76,1275.85 -711.13,1715.51 -117.79,117.87 -247.67,223.69 -387.58,315.48 139.92,91.79 269.79,197.6 387.58,315.47 439.37,439.66 711.13,1046.15 711.13,1715.51 0,669.37 -271.76,1275.86 -711.13,1715.5 -439.31,439.6 -1046.46,711.79 -1717.19,712.59 -1226.43,0.21 -1947.16,303.71 -2395.35,838.71 -467.32,557.82 -682.49,1397.87 -868.56,2419.59 -194.76,1069.32 -762.84,2008.15 -1564.06,2676.02 -788.92,657.64 -1802.27,1053.31 -2906.49,1053.31 -1104.23,0 -2117.58,-395.68 -2906.5,-1053.31 -801.22,-667.87 -1369.3,-1606.71 -1564.06,-2676.02 -186.08,-1021.72 -401.25,-1861.77 -868.56,-2419.59 -448.19,-535 -1168.92,-838.5 -2395.35,-838.71 -670.74,-0.8 -1277.89,-273 -1717.19,-712.58 -439.37,-439.66 -711.13,-1046.15 -711.13,-1715.51 0,-669.36 271.77,-1275.86 711.12,-1715.51 117.79,-117.87 247.67,-223.68 387.58,-315.47 -139.91,-91.8 -269.79,-197.61 -387.58,-315.48 -439.35,-439.65 -711.12,-1046.15 -711.12,-1715.51 0,-669.36 271.76,-1275.85 711.13,-1715.51 117.79,-117.86 247.65,-223.67 387.56,-315.46 -139.91,-91.79 -269.77,-197.6 -387.56,-315.46 -439.37,-439.66 -711.13,-1046.15 -711.13,-1715.51 0,-669.36 271.77,-1275.86 711.12,-1715.51 243.47,-243.63 538.5,-435.79 867.32,-558.89 195.13,-155.95 353.91,-333.16 477.34,-526.47 305.81,-478.95 408.86,-1071.51 321.96,-1699.42 -90.49,-653.78 -386.15,-1343.67 -873.54,-1988.2 -299.33,-395.85 -669.32,-772.79 -1106.91,-1112.37 -1087.73,-702.51 -2095.82,-1517.78 -3007.51,-2429.47 -3293.45,-3293.46 -5330.5,-7843.3 -5330.5,-12868.88 0,-5025.57 2037.05,-9575.41 5330.5,-12868.87 3293.45,-3293.45 7843.3,-5330.5 12868.87,-5330.5zm15266.47 9846.05l-2471.27 1426.79 -12.5 6.25c-127.63,67.94 -231.19,134.38 -308.46,201.71 -47.84,41.69 -77.66,76.19 -87.75,103.55 -67.22,182.27 23.49,349.14 157.57,484.72 189.87,192.01 456.7,332.56 617.6,408.83 49.51,23.47 111.71,48.86 173.2,73.96 386.65,157.82 751.88,306.92 1250.58,1170.71l1.57 0c333.48,580.8 400.75,1242.25 239.57,1842.26 -160.91,598.94 -550.65,1137.07 -1131.57,1472.87l0.4 0.68c-580.96,335.42 -1242.25,403.85 -1842.14,243.54 -600.05,-160.36 -1139.43,-549.79 -1476.21,-1129.92l0 -1.56c-497.37,-861.48 -443.93,-1251.76 -387.36,-1664.91 7.63,-55.79 15.37,-112.2 21.46,-187.36 14.64,-180.65 26.9,-486.12 -43.19,-741.96 -50.19,-183.21 -149.3,-344.64 -341.15,-377.61 -29.7,-5.1 -74.96,3.4 -135,23.99 -94.06,32.26 -203.44,89.12 -328.46,167.16l-12.5 6.25 -2459.17 1419.8c520.72,1021.68 814.78,2178.2 814.78,3403.57 0,1225.37 -294.04,2381.92 -814.79,3403.58l2449.74 1414.35c185.37,98.77 338.48,197.66 456.96,300.9l0 1.56c148.78,129.65 254.02,270.87 312.74,430.11 202.4,548.75 -9.32,989.03 -338.8,1322.23 -273.69,276.76 -631.64,466.72 -845.73,568.21 -82.29,39.01 -148.43,66.01 -213.81,92.69 -257.28,105.01 -500.31,204.22 -859.6,826.3l1.18 0.67c-224.44,390.9 -269.79,835.79 -161.44,1239.12 108.21,402.8 369.77,764.31 759.28,989.2l-0.39 0.67c388.94,224.12 832.75,269.43 1236.28,161.6 403.64,-107.87 766.08,-369.16 991.84,-758.05l0.67 0.39c360.12,-624.17 324.47,-884.75 286.71,-1160.59 -10.95,-79.96 -22.02,-160.79 -27.72,-231.11 -18.9,-232.98 -32.8,-633.83 71.3,-1013.84 124,-452.66 399.48,-856.72 975.53,-955.73 167.99,-28.89 342.82,-8.54 528.75,55.23 151.93,52.09 314.54,135.17 490.97,245.3l2460.33 1420.53c1359.57,-2479.45 2132.9,-5326.03 2132.9,-8353.32 0,-3027.29 -773.35,-5873.85 -2132.9,-8353.32zm-8973.39 4260.13l2448.84 -1413.84 -0.44 -0.71c176.41,-110.12 339.03,-193.19 490.96,-245.3 185.93,-63.76 360.8,-84.1 528.76,-55.23 576.05,99.01 851.53,503.07 975.53,955.73 104.1,380.01 90.2,780.86 71.31,1013.84 -5.7,70.26 -16.78,151.16 -27.72,231.12 -37.77,275.84 -73.43,536.43 286.69,1160.6l0.67 -0.39c225.76,388.88 588.2,650.17 991.85,758.04 403.27,107.76 847,62.24 1235.88,-162.28l1.56 0c388.29,-224.18 649.34,-585.73 757.73,-989.19 108.35,-403.33 62.99,-848.22 -161.45,-1239.12l1.18 -0.67c-359.29,-622.07 -602.3,-721.29 -859.57,-826.3 -65.39,-26.69 -131.52,-53.69 -213.82,-92.7 -214.11,-101.49 -572.06,-291.44 -845.74,-568.21 -329.48,-333.17 -541.2,-773.47 -338.81,-1322.22 59.31,-160.81 164.53,-302.51 312.75,-431.67 116.16,-101.22 265.62,-198.28 446.15,-295.13l-0.19 -0.33 2471.71 -1427.04c-723.77,-1187.32 -1585.75,-2281.15 -2563.66,-3259.06 -3061.03,-3061.02 -7257.4,-4986.56 -11903.25,-5091.37l0 2850.94 -1.56 12.5c-5.03,146.25 0.58,269.57 20,368.88 12.42,63.51 27.38,107.06 45.7,129.09 124.28,149.41 314.9,154.11 500.27,105.55 258.18,-67.63 514.67,-229.55 662.35,-331.57 50.21,-34.68 101.26,-74.27 151.73,-113.42 330.76,-256.52 643.22,-498.85 1636.4,-498.85l0 1.56c670.98,1.59 1278.18,274.16 1717.34,713.89 439.27,439.86 710.98,1046.28 710.98,1715.53 0,669.25 -271.71,1275.67 -710.98,1715.53 -439.16,439.73 -1046.36,712.3 -1717.34,713.89l0 1.56c-993.2,0 -1305.64,-242.32 -1636.41,-498.86 -50.47,-39.13 -101.54,-78.75 -151.72,-113.41 -147.69,-102.03 -404.17,-263.95 -662.35,-331.58 -185.36,-48.55 -375.99,-43.85 -500.27,105.56 -18.32,22.03 -33.28,65.58 -45.7,129.09 -19.42,99.31 -25.03,222.62 -20,368.88l1.56 12.5 0 2841.54c2469.13,129.65 4622.08,1452.47 5893.08,3402.63zm8573.82 13137.39l-2482.64 -1433.29c-125.03,-78.04 -234.4,-134.91 -328.47,-167.16 -60.05,-20.59 -105.29,-29.09 -134.99,-23.99 -191.85,32.97 -290.96,194.4 -341.15,377.61 -70.08,255.83 -57.83,561.31 -43.18,741.96 6.09,75.07 13.82,131.56 21.46,187.35 56.55,413.15 109.99,803.43 -387.38,1664.9l0 1.56c-336.78,580.13 -876.15,969.57 -1476.2,1129.93 -599.23,160.13 -1259.95,91.7 -1840.59,-243.53l-1.56 0c-580.32,-335.05 -969.98,-873.56 -1131.16,-1473.56 -161.19,-600.01 -93.92,-1261.46 239.56,-1842.26l1.57 0c498.72,-863.81 863.95,-1012.89 1250.61,-1170.71 61.48,-25.09 123.66,-50.47 173.19,-73.95 160.89,-76.27 427.72,-216.83 617.59,-408.83 134.08,-135.59 224.79,-302.46 157.56,-484.73 -10.61,-28.78 -40.14,-63.53 -86.97,-104.43l-0.77 0.88c-77.27,-67.33 -180.83,-133.77 -308.46,-201.7l-2471.84 -1427.05c-1271.07,1950.12 -3423.96,3272.98 -5893.08,3402.63l0 2841.54 -1.15 0c6.39,203.68 -3.03,381.71 -32.92,534.5 -37.49,191.68 -107.62,353.17 -217.57,485.35 -373.98,449.59 -860.38,486.56 -1312.78,368.05 -379.59,-99.44 -721.7,-313.34 -915.46,-447.19 -69.83,-48.24 -128.29,-93.58 -186.1,-138.41 -218.88,-169.76 -425.64,-330.12 -1148.91,-330.12l0 -1.56c-449.49,1.06 -856.74,184.15 -1151.72,479.51 -294.46,294.86 -476.6,702.38 -476.6,1153.03 0,450.65 182.14,858.17 476.6,1153.03 294.98,295.36 702.23,478.45 1151.72,479.51l0 -1.56c723.25,0 930.02,-160.37 1148.9,-330.11 57.81,-44.84 116.28,-90.19 186.11,-138.42 193.76,-133.85 535.87,-347.76 915.46,-447.2 452.4,-118.5 938.8,-81.54 1312.78,368.05 109.95,132.2 180.08,293.69 217.57,485.36 29.89,152.79 39.31,330.82 32.92,534.5l1.15 0 0 2850.99c3433.82,-77.48 6621.99,-1149.71 9287.76,-2939.86 72.19,-51.12 145.84,-101.33 220.88,-150.59 857.45,-595.04 1658.83,-1265.2 2394.61,-2000.98 977.9,-977.9 1839.83,-2071.77 2563.65,-3259.05zm-15266.9 8350.49l0 -2851 1.56 -12.5c5.03,-146.24 -0.58,-269.56 -20.01,-368.88 -12.42,-63.52 -27.38,-107.08 -45.69,-129.1 -124.28,-149.41 -314.91,-154.1 -500.28,-105.55 -258.17,67.63 -514.66,229.56 -662.34,331.58 -50.21,34.68 -101.26,74.27 -151.73,113.42 -330.76,256.52 -643.22,498.85 -1636.4,498.85l0 -1.56c-670.98,-1.59 -1278.18,-274.16 -1717.34,-713.89 -439.27,-439.86 -710.98,-1046.28 -710.98,-1715.53 0,-669.25 271.71,-1275.67 710.98,-1715.53 439.16,-439.73 1046.36,-712.3 1717.34,-713.89l0 -1.56c993.2,0 1305.64,242.32 1636.41,498.86 50.47,39.13 101.54,78.75 151.72,113.41 147.68,102.02 404.16,263.94 662.34,331.57 185.37,48.56 375.99,43.87 500.28,-105.55 18.32,-22.02 33.27,-65.57 45.69,-129.09 19.43,-99.32 25.04,-222.64 20.01,-368.88l-1.56 -12.5 0 -2841.57c-2468.81,-129.67 -4621.33,-1452.26 -5892.42,-3402.09l-2449.09 1413.99c-176.41,110.17 -339.01,193.25 -490.93,245.34 -185.94,63.77 -360.8,84.1 -528.76,55.23 -576.05,-99.01 -851.54,-503.07 -975.54,-955.73 -104.1,-380.01 -90.2,-780.87 -71.3,-1013.84 5.7,-70.32 16.77,-151.15 27.72,-231.11 37.7,-275.35 73.32,-535.48 -287.37,-1160.21 -225.76,-388.88 -588.2,-650.17 -991.85,-758.04 -403.26,-107.76 -847,-62.24 -1235.88,162.28 -389.51,224.89 -651.07,586.39 -759.28,989.19 -108.36,403.34 -63,848.23 161.44,1239.12l-1.18 0.67c359.29,622.08 602.32,721.29 859.58,826.29 65.39,26.69 131.52,53.69 213.82,92.7 214.09,101.48 572.04,291.44 845.74,568.21 329.48,333.19 541.2,773.46 338.81,1322.22 -59.31,160.81 -164.53,302.51 -312.75,431.67 -118.47,103.23 -271.58,202.12 -456.96,300.92l-2461.12 1420.92c723.85,1187.58 1585.97,2281.63 2564.07,3259.73 727.29,727.29 1518.77,1390.37 2365.08,1980.24l5.59 -8.78c174.4,111.35 341.21,227.71 500.33,348.4 2612.99,1688.9 5707.46,2696.55 9032.25,2771.57zm-14866.1 -9040.68l2483.4 -1433.72c127.62,-67.95 231.19,-134.39 308.46,-201.72 47.84,-41.69 77.66,-76.19 87.75,-103.55 67.22,-182.26 -23.49,-349.13 -157.57,-484.72 -189.89,-192.02 -456.72,-332.57 -617.6,-408.83 -49.51,-23.47 -111.71,-48.86 -173.2,-73.96 -386.64,-157.81 -751.88,-306.88 -1250.59,-1170.7l-1.57 0c-333.49,-580.81 -400.75,-1242.26 -239.56,-1842.26 161.19,-600 550.84,-1138.5 1131.16,-1473.55 580.96,-335.42 1242.27,-403.84 1842.14,-243.54 600.06,160.36 1139.42,549.78 1476.21,1129.92 497.55,861.78 444.03,1252.67 387.37,1666.47 -7.64,55.79 -15.37,112.28 -21.46,187.35 -14.65,180.65 -26.9,486.13 43.18,741.96 50.19,183.2 149.31,344.64 341.16,377.61 29.71,5.1 74.95,-3.4 135,-23.99 94.07,-32.25 203.44,-89.12 328.46,-167.15l2471 -1426.58c-520.49,-1021.53 -814.11,-2177.97 -814.11,-3403.05 0,-1225.34 293.67,-2382.1 814.41,-3403.78l-2449.36 -1414.14c-185.37,-98.78 -338.48,-197.66 -456.96,-300.9l0 -1.56c-148.78,-129.65 -254.02,-270.88 -312.74,-430.11 -202.4,-548.75 9.32,-989.03 338.8,-1322.23 273.68,-276.77 631.63,-466.72 845.74,-568.21 82.3,-39.01 148.43,-66.01 213.81,-92.69 256.49,-104.7 498.83,-203.64 858.91,-826.69l-0.5 -0.28c224.44,-390.89 269.8,-835.79 161.44,-1239.12 -108.39,-403.47 -369.44,-765.02 -757.73,-989.2l-1.56 0c-388.88,-224.52 -832.62,-270.04 -1235.88,-162.27 -403.65,107.87 -766.09,369.16 -991.85,758.05 -360.67,624.7 -325.07,884.83 -287.37,1160.19 10.95,79.96 22.02,160.79 27.72,231.12 18.9,232.97 32.8,633.82 -71.3,1013.84 -124,452.64 -399.49,856.7 -975.53,955.73 -167.99,28.89 -342.82,8.54 -528.75,-55.23 -151.94,-52.11 -314.54,-135.19 -490.97,-245.3l-2460.33 -1420.54c-1359.56,2479.46 -2132.9,5326.03 -2132.9,8353.32 0,3027.57 773.49,5874.39 2133.27,8354.01zm399.2 -17398.21l2482.64 1433.3c125.03,78.03 234.4,134.9 328.47,167.16 60.05,20.59 105.29,29.09 134.99,23.99 191.85,-32.98 290.96,-194.41 341.15,-377.61 70.08,-255.84 57.83,-561.31 43.18,-741.96 -6.09,-75.08 -13.82,-131.57 -21.46,-187.36 -56.65,-413.79 -110.16,-804.7 387.37,-1666.45 336.78,-580.14 876.15,-969.57 1476.21,-1129.93 599.88,-160.32 1261.17,-91.89 1842.14,243.53l-0.4 0.68c580.92,335.8 970.66,873.94 1131.57,1472.88 161.19,599.99 93.92,1261.46 -239.56,1842.26l-1.57 1.56c-497.54,861.77 -863.35,1011.08 -1250.6,1169.15 -61.48,25.09 -123.67,50.48 -173.19,73.95 -160.9,76.27 -427.73,216.82 -617.6,408.83 -134.08,135.59 -224.78,302.47 -157.56,484.73 10.61,28.79 40.14,63.53 86.97,104.43l0.77 -0.88c77.27,67.33 180.83,133.76 308.46,201.7l2471.81 1427.04c285.97,-438.75 616.47,-845.83 985.27,-1214.63 1270.48,-1270.48 2994.24,-2087.6 4907.84,-2188.08l0 -2841.45 1.15 0c-6.39,-203.68 3.03,-381.71 32.91,-534.5 37.5,-191.69 107.64,-353.18 217.58,-485.35 373.99,-449.61 860.38,-486.56 1312.77,-368.06 379.59,99.44 721.71,313.34 915.47,447.2 69.83,48.24 128.29,93.58 186.1,138.41 218.88,169.76 425.64,330.12 1148.91,330.12l0 1.56c449.49,-1.06 856.74,-184.15 1151.72,-479.51 294.46,-294.86 476.6,-702.38 476.6,-1153.03 0,-450.65 -182.14,-858.17 -476.6,-1153.03 -294.98,-295.36 -702.23,-478.45 -1151.72,-479.51l0 1.56c-723.25,0 -930.02,160.37 -1148.9,330.11 -57.81,44.84 -116.28,90.19 -186.11,138.42 -193.76,133.85 -535.89,347.77 -915.47,447.19 -452.39,118.51 -938.79,81.54 -1312.77,-368.05 -109.94,-132.17 -180.08,-293.67 -217.58,-485.35 -29.88,-152.79 -39.3,-330.83 -32.91,-534.5l-1.15 0 0 -2850.94c-4645.86,104.81 -8842.23,2030.35 -11903.25,5091.37 -977.91,977.91 -1839.83,2071.77 -2563.65,3259.05zm21573.37 9044.2c0,-3703.87 -3002.6,-6706.46 -6706.47,-6706.46 -1851.98,0 -3528.62,750.65 -4742.22,1964.25 -1213.61,1213.6 -1964.25,2890.24 -1964.25,4742.21 0,3703.87 3002.6,6706.47 6706.47,6706.47 3703.87,0 6706.47,-3002.6 6706.47,-6706.47zm-14202.98 20471.05l7400.65 -1.26 7570.39 1.29c-353.31,-629.74 -468.78,-1373.53 -360.21,-2146.31 87.47,-622.59 320.69,-1265.16 692,-1880.3 -2365.65,1125.11 -5012.42,1754.91 -7806.32,1754.91 -2772.68,0 -5400.42,-620.31 -7752.39,-1729.32 355.66,596.34 578.77,1217.46 662.1,1819.48 109.27,789.47 -21.07,1547.55 -406.22,2181.51zm2353.88 12980.62c115.77,100.05 222.12,208.74 320.15,325.75 581.06,693.61 831.93,1646.57 1040.44,2791.47 160.32,880.22 628.53,1653.55 1289.06,2204.14 648.49,540.56 1484.07,865.81 2397.12,865.81 913.04,0 1748.63,-325.24 2397.11,-865.81 660.53,-550.59 1128.74,-1323.9 1289.06,-2204.14 208.5,-1144.9 459.37,-2097.87 1040.44,-2791.47 98.03,-117.01 204.38,-225.7 320.15,-325.75l-5046.76 0.86 -5046.77 -0.86zm5046.77 -8919.92l7734.46 -1.33c449.57,-0.53 856.76,-183.21 1151.57,-478.21 294.55,-294.74 476.75,-702.31 476.75,-1153 0,-450.68 -182.19,-858.26 -476.75,-1153.01 -294.8,-295 -701.98,-477.68 -1151.57,-478.21l-7734.46 -1.32 -7734.47 1.32c-449.58,0.53 -856.76,183.2 -1151.58,478.21 -294.55,294.75 -476.74,702.32 -476.74,1153.01 0,450.68 182.19,858.26 476.75,1153.01 294.8,295 701.99,477.67 1151.57,478.2l7734.47 1.33zm7734.46 798.2l-7734.46 -1.32 -7734.47 1.32c-449.59,0.52 -856.77,183.19 -1151.57,478.19 -294.56,294.75 -476.75,702.33 -476.75,1153.01 0,450.69 182.19,858.26 476.74,1153.01 294.81,295 702,477.68 1151.58,478.21l7734.47 1.33 7734.46 -1.33c449.59,-0.53 856.77,-183.21 1151.57,-478.21 294.56,-294.75 476.75,-702.33 476.75,-1153.01 0,-450.69 -182.2,-858.26 -476.75,-1153 -294.81,-295 -701.99,-477.68 -1151.57,-478.2zm-7734.46 7325.7l7734.46 -1.32c449.57,-0.53 856.76,-183.21 1151.57,-478.21 294.55,-294.74 476.75,-702.31 476.75,-1153 0,-450.68 -182.19,-858.26 -476.75,-1153.01 -294.8,-295 -701.99,-477.67 -1151.57,-478.2l-7734.46 -1.33 -7734.47 1.33c-449.59,0.53 -856.76,183.2 -1151.58,478.2 -294.55,294.75 -476.74,702.32 -476.74,1153.01 0,450.68 182.19,858.26 476.75,1153.01 294.8,295 701.99,477.67 1151.57,478.2l7734.47 1.32z"></path></g></svg>