<svg height='300px' width='300px'  fill="#000000" xmlns="http://www.w3.org/2000/svg" data-name="Layer 1" viewBox="0 0 64 64" x="0px" y="0px"><title>x</title><path d="M22.049,57.355h4.457a1.5,1.5,0,0,0,0-3H22.049a1.5,1.5,0,0,0,0,3Z"></path><path d="M57.694,22.571H55.859a12.142,12.142,0,0,0-.853-2.056l1.3-1.3a3.3,3.3,0,0,0,0-4.654L55.744,14a3.3,3.3,0,0,0-4.658,0l-1.3,1.3a11.971,11.971,0,0,0-2.055-.853V12.607a3.3,3.3,0,0,0-3.3-3.3H43.65a3.3,3.3,0,0,0-3.3,3.3v1.837A12.108,12.108,0,0,0,38.3,15.3l-1.3-1.3a3.3,3.3,0,0,0-4.654,0l-.56.56a3.3,3.3,0,0,0,0,4.658l1.3,1.3a12.108,12.108,0,0,0-.853,2.056H30.391a3.3,3.3,0,0,0-3.3,3.3v.785a3.3,3.3,0,0,0,3.3,3.3h1.836A12.132,12.132,0,0,0,33.08,32l-1.3,1.3a3.3,3.3,0,0,0,0,4.654l.56.56a3.3,3.3,0,0,0,4.658,0l1.3-1.3a11.961,11.961,0,0,0,2.056.853v1.837a3.3,3.3,0,0,0,3.3,3.3h.786a3.3,3.3,0,0,0,3.3-3.3V38.075a12.051,12.051,0,0,0,2.055-.853l1.3,1.3a3.3,3.3,0,0,0,4.654,0l.56-.561a3.3,3.3,0,0,0,0-4.657l-1.3-1.3a12.047,12.047,0,0,0,.852-2.055h1.836a3.3,3.3,0,0,0,3.3-3.3v-.785A3.3,3.3,0,0,0,57.694,22.571Zm.6,4.081a.6.6,0,0,1-.6.6H54.817a1.337,1.337,0,0,0-1.241.821l0,.011a1.383,1.383,0,0,0-.075.236,9.389,9.389,0,0,1-1.315,3.17,1.25,1.25,0,0,0-.048.12,1.3,1.3,0,0,0-.1.25,1.251,1.251,0,0,0-.049.248,1.287,1.287,0,0,0,0,.256,1.33,1.33,0,0,0,.048.25,1.358,1.358,0,0,0,.1.233,1.291,1.291,0,0,0,.149.225c.028.034.04.076.071.107l2.033,2.033a.6.6,0,0,1,0,.842l-.561.562a.6.6,0,0,1-.838,0L50.96,34.576c-.033-.033-.076-.045-.111-.074a1.3,1.3,0,0,0-.219-.145,1.334,1.334,0,0,0-.238-.1,1.312,1.312,0,0,0-.248-.049,1.46,1.46,0,0,0-.256,0,1.325,1.325,0,0,0-.248.048,1.3,1.3,0,0,0-.252.1,1.208,1.208,0,0,0-.118.047A9.416,9.416,0,0,1,46.1,35.714a1.367,1.367,0,0,0-.232.075l-.014,0a1.337,1.337,0,0,0-.416.28l-.012.011a1.35,1.35,0,0,0-.279.413l-.009.017a1.353,1.353,0,0,0-.1.518v0h0v2.876a.6.6,0,0,1-.6.6H43.65a.6.6,0,0,1-.6-.6V37.036h0v0a1.354,1.354,0,0,0-.1-.518l-.009-.017a1.35,1.35,0,0,0-.279-.413l-.012-.011a1.325,1.325,0,0,0-.416-.28l-.014,0a1.339,1.339,0,0,0-.232-.075,9.411,9.411,0,0,1-3.17-1.315c-.038-.025-.082-.027-.121-.048a1.263,1.263,0,0,0-.249-.1A1.327,1.327,0,0,0,38.2,34.2a1.308,1.308,0,0,0-.258.005,1.343,1.343,0,0,0-.245.047,1.382,1.382,0,0,0-.459.247c-.035.029-.078.041-.111.074l-2.032,2.032a.6.6,0,0,1-.843,0l-.561-.561a.6.6,0,0,1,0-.839l2.036-2.036a1.212,1.212,0,0,0,.07-.106,1.3,1.3,0,0,0,.151-.227,1.261,1.261,0,0,0,.1-.231,1.28,1.28,0,0,0,.049-.251,1.369,1.369,0,0,0,0-.256,1.333,1.333,0,0,0-.049-.247,1.233,1.233,0,0,0-.1-.252c-.021-.039-.023-.082-.048-.12a9.408,9.408,0,0,1-1.315-3.17,1.394,1.394,0,0,0-.072-.224c0-.008,0-.017-.009-.025a1.308,1.308,0,0,0-.267-.4c-.011-.011-.018-.023-.029-.034a1.358,1.358,0,0,0-.388-.261c-.016-.007-.029-.017-.044-.023a1.33,1.33,0,0,0-.5-.1l-.01,0H30.391a.6.6,0,0,1-.6-.6v-.785a.6.6,0,0,1,.6-.6h2.878a1.32,1.32,0,0,0,.488-.1,1.388,1.388,0,0,0,.146-.081,1.337,1.337,0,0,0,.263-.178,1.34,1.34,0,0,0,.368-.576,1.209,1.209,0,0,0,.054-.134,9.408,9.408,0,0,1,1.315-3.17,1.111,1.111,0,0,0,.048-.12,1.233,1.233,0,0,0,.1-.252,1.333,1.333,0,0,0,.049-.247,1.369,1.369,0,0,0,0-.256,1.257,1.257,0,0,0-.049-.25,1.242,1.242,0,0,0-.1-.232,1.262,1.262,0,0,0-.151-.227,1.212,1.212,0,0,0-.07-.106L33.693,17.31a.6.6,0,0,1,0-.842l.561-.561a.6.6,0,0,1,.839,0l2.035,2.036c.006.006.015.008.021.014a1.34,1.34,0,0,0,.387.257c.032.014.064.025.1.037a1.375,1.375,0,0,0,.447.087h0a1.35,1.35,0,0,0,.453-.088c.043-.016.082-.037.125-.058a1.228,1.228,0,0,0,.157-.072,9.411,9.411,0,0,1,3.169-1.315,1.33,1.33,0,0,0,.229-.073l.019-.007a1.316,1.316,0,0,0,.412-.277l.016-.014a1.353,1.353,0,0,0,.276-.409L42.948,16a1.334,1.334,0,0,0,.1-.515V12.607a.6.6,0,0,1,.6-.6h.786a.6.6,0,0,1,.6.6v2.881a1.338,1.338,0,0,0,.1.515l.011.022a1.353,1.353,0,0,0,.276.409l.017.014a1.319,1.319,0,0,0,.41.277l.021.007a1.319,1.319,0,0,0,.228.073,9.4,9.4,0,0,1,3.17,1.315,1.334,1.334,0,0,0,.154.071,1.232,1.232,0,0,0,.128.059,1.344,1.344,0,0,0,.452.088h0a1.35,1.35,0,0,0,.448-.087c.033-.012.065-.023.1-.037a1.34,1.34,0,0,0,.387-.257c.007-.006.015-.008.021-.014l2.032-2.033a.6.6,0,0,1,.842,0l.562.562a.6.6,0,0,1,0,.839l-2.036,2.036a1.093,1.093,0,0,0-.07.107,1.2,1.2,0,0,0-.15.226,1.214,1.214,0,0,0-.147.484,1.325,1.325,0,0,0,0,.252,1.28,1.28,0,0,0,.049.251,1.319,1.319,0,0,0,.1.248,1.127,1.127,0,0,0,.048.121A9.377,9.377,0,0,1,53.5,24.2c.011.049.04.089.055.136a1.193,1.193,0,0,0,.243.435,1.256,1.256,0,0,0,.124.139,1.315,1.315,0,0,0,.264.178,1.373,1.373,0,0,0,.145.081,1.325,1.325,0,0,0,.489.1h2.877a.6.6,0,0,1,.6.6Z"></path><path d="M44.043,19.7A6.561,6.561,0,1,0,50.6,26.26,6.567,6.567,0,0,0,44.043,19.7Zm0,10.421a3.861,3.861,0,1,1,3.86-3.86A3.865,3.865,0,0,1,44.043,30.12Z"></path><path d="M43.65,45.707a5.842,5.842,0,0,1-1.106-.111v3.018H6.01V5.243A1.34,1.34,0,0,1,7.348,3.9H41.206a1.34,1.34,0,0,1,1.338,1.339v1.68a5.761,5.761,0,0,1,1.106-.112h.786a5.774,5.774,0,0,1,1.108.112V5.243A4.344,4.344,0,0,0,41.206.9H7.348A4.344,4.344,0,0,0,3.01,5.243V58.758A4.344,4.344,0,0,0,7.348,63.1H41.206a4.344,4.344,0,0,0,4.338-4.338V45.6a5.774,5.774,0,0,1-1.108.112ZM42.544,58.758A1.34,1.34,0,0,1,41.206,60.1H7.348A1.34,1.34,0,0,1,6.01,58.758V51.614H42.544Z"></path></svg>