<svg id="Capa_1" enable-background="new 0 0 512 512" height="512" viewBox="0 0 512 512" width="512" xmlns="http://www.w3.org/2000/svg"><g><path d="m148.929 2.929-40 40c-3.37 3.371-3.894 8.652-1.249 12.618l80 120c2.445 3.666 7.001 5.302 11.218 4.024 4.218-1.277 7.103-5.164 7.103-9.571 0-11.947 2.976-23.71 8.508-34.2l11.07 16.597-39.486 288.246c-.425 3.099.625 6.217 2.836 8.429l60 60c1.953 1.952 4.511 2.928 7.071 2.928s5.118-.976 7.071-2.929l60-60c2.211-2.211 3.261-5.33 2.836-8.429l-13.893-101.413c-.749-5.472-5.799-9.302-11.265-8.55-5.472.75-9.3 5.792-8.55 11.265l13.219 96.495-49.418 49.419-49.419-49.419 38.143-278.439h22.553l12.709 92.771c.75 5.472 5.8 9.303 11.265 8.55 5.472-.75 9.3-5.792 8.55-11.265l-13.378-97.659 11.07-16.597c5.531 10.49 8.507 22.253 8.507 34.2 0 4.407 2.885 8.294 7.103 9.571 4.216 1.278 8.774-.357 11.218-4.024l80-120c2.645-3.966 2.121-9.247-1.249-12.618l-40-40c-1.887-1.886-4.507-2.929-7.072-2.929h-200c-2.527 0-5.146 1.003-7.071 2.929zm121.721 137.071h-29.3l-14.274-21.401c8.062-8.184 17.936-14.37 28.924-18.054 10.986 3.682 20.86 9.869 28.923 18.054zm-14.65-62.806-71.492-57.194h142.984zm-65.984 65.803-61.147-91.723 27.873-27.874 79.7 63.76c-22.286 11.504-39.064 31.548-46.426 55.837zm131.968 0c-7.313-24.127-23.992-44.256-46.427-55.837l79.7-63.76 27.874 27.874z"/><circle cx="296" cy="296" r="10"/></g></svg>