<svg height='300px' width='300px'  fill="#000000" xmlns="http://www.w3.org/2000/svg" xmlns:xlink="http://www.w3.org/1999/xlink" version="1.1" x="0px" y="0px" viewBox="0 0 60 60" style="enable-background:new 0 0 60 60;" xml:space="preserve"><g><path d="M59,0H1C0.447,0,0,0.447,0,1v46c0,0.553,0.447,1,1,1h22v10h-3v2h4h12v-2H25V48h10v-2H24H2v-8h3h29h1v-2h-1H6V6h48v16h2V5   c0-0.553-0.447-1-1-1H5C4.447,4,4,4.447,4,5v31H2V2h56v20h2V1C60,0.447,59.553,0,59,0z"></path><path d="M59,26H39c-0.553,0-1,0.447-1,1v32c0,0.553,0.447,1,1,1h20c0.553,0,1-0.447,1-1V27C60,26.447,59.553,26,59,26z M58,28v4H40   v-4H58z M58,34v19H40V34H58z M40,58v-3h18v3H40z"></path><rect x="47" y="29" width="4" height="2"></rect><path d="M43,44h12c0.553,0,1-0.447,1-1v-6c0-0.553-0.447-1-1-1H43c-0.553,0-1,0.447-1,1v6C42,43.553,42.447,44,43,44z M44,38h10v4   H44V38z"></path><rect x="42" y="46" width="14" height="2"></rect><rect x="42" y="49" width="14" height="2"></rect><path d="M52,19V9c0-0.553-0.447-1-1-1H9C8.447,8,8,8.447,8,9v10c0,0.553,0.447,1,1,1h42C51.553,20,52,19.553,52,19z M50,18H10v-8   h40V18z"></path><path d="M9,22c-0.553,0-1,0.447-1,1v10c0,0.553,0.447,1,1,1h12c0.553,0,1-0.447,1-1V23c0-0.553-0.447-1-1-1H9z M20,32H10v-8h10V32z   "></path><rect x="24" y="23" width="8" height="2"></rect><rect x="24" y="27" width="10" height="2"></rect><rect x="24" y="31" width="10" height="2"></rect></g></svg>