<svg height="512" viewBox="0 0 52 60" width="512" xmlns="http://www.w3.org/2000/svg"><g id="014---Developer-Management" transform="translate(-1)"><path id="Shape" d="m51.572 31.131-4.1-1.015c-.1933414-1.0115815-.4607275-2.0075947-.8-2.98l3.045-2.936c.5952762-.5663566.7437401-1.4583636.364-2.187-.185-.36-.943-1.671-1.151-1.992-.4418599-.6978994-1.2912276-1.0205369-2.085-.792l-4.064 1.171c-.6738822-.7776238-1.4027582-1.5058315-2.181-2.179l1.177-4.081c.2223435-.7697221-.0809844-1.5946608-.749-2.037-.106-.075-.29-.176-2.356-1.279l-.683-.364c0-.153.011-.3.011-.46v-.154c-.0527178-5.46031105-4.4994439-9.85614084-9.96-9.846h-2.08c-5.4618774-.00957728-9.9089217 4.38835302-9.96 9.85v.15c0 .159.007.307.011.46l-.683.364c-2.066 1.1-2.25 1.2-2.309 1.248-.6983403.4414804-1.020784 1.2914111-.791 2.085l1.172 4.064c-.7779988.6734298-1.5068567 1.4016194-2.181 2.179l-4.081-1.177c-.78419954-.2217746-1.62109827.0963282-2.06.783-.216.334-.974 1.645-1.148 1.984-.39178402.7323831-.24743428 1.6361025.353 2.21l3.044 2.936c-.33889985.9721798-.60627902 1.967833-.8 2.979l-4.127 1.023c-.78937219.2113041-1.35218873.9078552-1.393 1.724-.011.379-.011 1.9 0 2.3.05146375.8174593.62493483 1.5081302 1.419 1.709l4.1 1.015c.19368617 1.011175.46106602 2.0068307.8 2.979l-3.044 2.935c-.59479175.5670934-.74279949 1.4592171-.363 2.188.185.358.942 1.668 1.151 1.992.44227926.6973139 1.29187845 1.0188169 2.085.789l4.065-1.169c.673391.7777242 1.4015848 1.5062523 2.179 2.18l-1.176 4.081c-.2221195.7842146.0960603 1.6213161.783 2.06.334.216 1.645.974 1.984 1.148.7318297.3911107 1.6345878.2467839 2.208-.353l2.937-3.044c.9717291.3392575 1.9670763.6066442 2.978.8l1.024 4.128c.2124766.7878844.9080285 1.3494123 1.723 1.391.187.005.647.008 1.115.008.486 0 .982 0 1.187-.009.8170909-.0523908 1.5072867-.6254673 1.709-1.419l1.015-4.1c1.0113169-.1930681 2.0070176-.46046 2.979-.8l2.935 3.046c.5661906.5955891 1.4584193.7440899 2.187.364.36-.185 1.671-.943 1.992-1.151.6983403-.4414804 1.020784-1.2914111.791-2.085l-1.17-4.063c.7775655-.6746368 1.5060765-1.4038162 2.18-2.182l4.079 1.175c.7851789.2232426 1.6238727-.0945183 2.064-.782.216-.335.973-1.645 1.147-1.983.3905623-.7322547.2463143-1.6349284-.353-2.209l-3.044-2.936c.3390204-.9718022.6064024-1.9671319.8-2.978l4.127-1.022c.789191-.2115828 1.3518782-.9079738 1.393-1.724.011-.38.011-1.9 0-2.3-.0513036-.8184058-.6258127-1.5097573-1.421-1.71zm-33.572-21.277c.0466629-4.35955413 3.6002121-7.86578214 7.96-7.854h2.08c4.3584681-.01234709 7.9116997 3.491782 7.96 7.85v.15c.0184583.8610327-.0705623 1.7210054-.265 2.56-.2255657-.1634606-.4729855-.294408-.735-.389v-1.171c-.0033061-2.76005315-2.2399468-4.99669388-5-5h-6c-2.7600532.00330612-4.9966939 2.23994685-5 5v1.171c-.2620145.094592-.5094343.2255394-.735.389-.1944377-.8389946-.2834583-1.6989673-.265-2.56zm6 15.563v1.583c-4.9682782.0055111-8.9944889 4.0317218-9 9v5.174c-1.9346132-3.2131044-2.49474-7.0695874-1.5541419-10.7002958.940598-3.6307085 3.3027698-6.7301193 6.5541419-8.5997042.8842858 1.6074 2.2975986 2.8592417 4 3.543zm2 .514c.6634928.0919984 1.3365072.0919984 2 0v2.069c0 .5522847-.4477153 1-1 1s-1-.4477153-1-1zm-9 10.069c.0049584-3.8639376 3.1360624-6.9950416 7-7h.184c.4174114 1.1981296 1.5472421 2.0009455 2.816 2.0009455s2.3985886-.8028159 2.816-2.0009455h.184c3.8639376.0049584 6.9950416 3.1360624 7 7v7.779c-2.6272064 2.6987267-6.233657 4.2210148-10 4.2210148s-7.3727936-1.5222881-10-4.2210148zm13-9v-1.583c1.7020839-.6832519 3.1153545-1.9343497 4-3.541 3.2513721 1.8695849 5.6135439 4.9689957 6.5541419 8.5997042.9405981 3.6307084.3804713 7.4871914-1.5541419 10.7002958v-5.176c-.0055111-4.9682782-4.0317218-8.9944889-9-9zm4.1-10.054c-.6523256.490284-1.0786458 1.2235403-1.182 2.033-.4779792 2.8976609-2.9831815 5.0234756-5.92 5.0234756s-5.4420208-2.1258147-5.92-5.0234756c-.102397-.8085371-.5272353-1.5413651-1.178-2.032-.5321437-.5141702-.8531077-1.2085225-.9-1.947 0-.5522847.4477153-1 1-1s1-.4477153 1-1v-2c0-1.65685425 1.3431458-3 3-3h6c1.6568542 0 3 1.34314575 3 3v2c0 .5522847.4477153 1 1 1s1 .4477153 1 1c-.0470413.7381496-.3680015 1.4321369-.9 1.946zm16.9 18.008-4.135 1.025c-.6899956.1950966-1.2099187.7642226-1.342 1.469-.1799581.9640161-.4347286 1.9125513-.762 2.837-.2384641.6862399-.0588165 1.4484756.461 1.956l3.035 2.928c-.2.37-.729 1.281-.956 1.652l-4.067-1.171c-.7009016-.1947963-1.4511122.0354972-1.922.59-.6355755.7400722-1.3258512 1.4313508-2.065 2.068-.5614228.4702749-.7960443 1.225365-.6 1.931l1.174 4.061c-.351.216-1.256.74-1.653.956l-2.94-3.048c-.5101489-.5128183-1.2699928-.6860409-1.952-.445-.9212057.3259897-1.8663955.5797566-2.827.759-.7153957.1363886-1.289883.6697024-1.479 1.373l-1.016 4.105c-.449.008-1.491.007-1.907 0l-1.025-4.135c-.1961344-.6893544-.7647676-1.2088274-1.469-1.342-.9640991-.1795927-1.9126625-.4343707-2.837-.762-.686253-.2382082-1.4483495-.0585934-1.956.461l-2.929 3.035c-.37-.2-1.28-.728-1.652-.956l1.173-4.065c.1930288-.7001692-.0375102-1.4487383-.591-1.919-.7413278-.6366626-1.4336214-1.3282877-2.071-2.069-.4714264-.558313-1.2253556-.7900808-1.929-.593l-4.061 1.166c-.218-.353-.74-1.258-.956-1.652l3.048-2.94c.51304083-.5100256.68629491-1.2700075.445-1.952-.3252621-.9199907-.57868856-1.8638203-.758-2.823-.13516675-.7171942-.66918933-1.2935811-1.374-1.483l-4.1-1.016c-.005-.447-.005-1.49-.005-1.906l4.137-1.026c.68842615-.1964102 1.20703673-.7645597 1.34-1.468.18008519-.9643142.43485249-1.9131719.762-2.838.23872038-.6862266.05903992-1.4486019-.461-1.956l-3.031-2.928c.2-.37.728-1.28.956-1.652l4.065 1.173c.7003803.1938318 1.4495433-.0372805 1.919-.592.6363516-.7403537 1.3276463-1.4316484 2.068-2.068.5601126-.4711463.7944709-1.2253897.6-1.931l-1.175-4.053c.3-.168 1.127-.607 2.051-1.1.1272467.746719.3960717 1.4622278.792 2.108-.009.093-.023.182-.023.282.0463116 1.3900973.6837036 2.6943497 1.752 3.585.2050625.1858725.3313425.443083.353.719.04.239.09.473.149.7-6.3839614 3.5321593-9.5699284 10.935714-7.7459286 18 1.8239997 7.064286 8.1959631 11.9999816 15.4919286 11.9999816s13.6679289-4.9356956 15.4919286-11.9999816c1.8239998-7.064286-1.3619672-14.4678407-7.7459286-18 .0586667-.2306667.1083333-.464.149-.7.0220186-.2760335.1486494-.5332301.354-.719 1.0681288-.8906749 1.705192-2.1949991 1.751-3.585 0-.1-.014-.189-.023-.283.3959283-.6457722.6647533-1.361281.792-2.108.921.492 1.745.931 2.05 1.1l-1.171 4.06c-.1932875.700173.0372942 1.4488807.591 1.919.7413252.6366654 1.4336187 1.3282903 2.071 2.069.4727694.5562866 1.2251988.7879834 1.929.594l4.061-1.17c.216.35.74 1.256.956 1.653l-3.048 2.939c-.5132637.509902-.6865493 1.2700223-.445 1.952.3251395.9203696.5785628 1.8645219.758 2.824.1365065.7165183.6699654 1.2922967 1.374 1.483l4.105 1.016z"/><path id="Path" d="m21.293 41.707c.3923789.3789722 1.0160848.3735524 1.4018186-.0121814s.3911536-1.0094397.0121814-1.4018186l-1.293-1.293 1.293-1.293c.3789722-.3923789.3735524-1.0160848-.0121814-1.4018186s-1.0094397-.3911536-1.4018186-.0121814l-2 2c-.3903819.3904999-.3903819 1.0235001 0 1.414z"/><path id="Path" d="m31.293 41.707c.3904999.3903819 1.0235001.3903819 1.414 0l2-2c.3903819-.3904999.3903819-1.0235001 0-1.414l-2-2c-.3923789-.3789722-1.0160848-.3735524-1.4018186.0121814s-.3911536 1.0094397-.0121814 1.4018186l1.293 1.293-1.293 1.293c-.3903819.3904999-.3903819 1.0235001 0 1.414z"/><path id="Path" d="m25.684 42.948c.5235354.1740931 1.0891532-.1087159 1.264-.632l2-6c.174522-.5246705-.1093295-1.091478-.634-1.266-.5246705-.1745219-1.091478.1093295-1.266.634l-2 6c-.0834301.2519523-.0632791.5267362.0560141.763822s.3279423.4170241.5799859.500178z"/></g></svg>